<mxfile host="app.diagrams.net" modified="2024-07-08T19:11:18.003Z" agent="Mozilla/5.0 (Windows NT 10.0; Win64; x64) AppleWebKit/537.36 (KHTML, like Gecko) Chrome/126.0.0.0 Safari/537.36" version="24.4.2" etag="hNW0BKZV2f2hDJ_KCXJi" type="github">
  <diagram name="PÃ¡gina-1" id="eSfi1MFnm-Iv8rzjgSZ-">
    <mxGraphModel>
      <root>
        <mxCell id="0" />
        <mxCell id="1" parent="0" />
      </root>
    </mxGraphModel>
  </diagram>
</mxfile>
